# xmcd
#
# Track frame offsets: 
#        150
#        11295
#        24795
#        34807
#        46297
#        59092
#        71452
#        80407
#        92962
#        103777
#        115822
#        128355
#        134973
#
# Disc length: 1958 seconds
#
# Revision: 1
# Processed by: cddbd v1.5.2PL0 Copyright (c) Steve Scherf et al.
# Submitted via: ExactAudioCopy v0.95b4
#
DISCID=aa07a40d
DTITLE=Sergio Mendes - Mas Que Nada
DYEAR=1998
DGENRE=Bossa Nova
TTITLE0=Oba-La-La
TTITLE1=Love For Sale
TTITLE2=Tristeza De Nos Dois
TTITLE3=What Is This Thing Called Love
TTITLE4=Olhou Para Mim
TTITLE5=Satin Doll
TTITLE6=Tema Sem Palavras
TTITLE7=On Green Dolphin Street
TTITLE8=Outra Vez
TTITLE9=Disa
TTITLE10=Sica's Dream
TTITLE11=Diagonal
TTITLE12=Mas Que Nada
EXTD=
EXTT0=
EXTT1=
EXTT2=
EXTT3=
EXTT4=
EXTT5=
EXTT6=
EXTT7=
EXTT8=
EXTT9=
EXTT10=
EXTT11=
EXTT12=
PLAYORDER=
